<svg shape-rendering="optimizeSpeed" xmlns="http://www.w3.org/2000/svg">
    <symbol id="moon" viewBox="0 0 16 16" fill="currentColor">
        <path id="moon" d="M6.24052 2.19528C6.44393 2.39869 6.49393 2.70965 6.36452 2.96657C6.02712 3.63647 5.83681 4.39358 5.83681 5.19706C5.83681 7.93979 8.06023 10.1632 10.803 10.1632C11.6064 10.1632 12.3635 9.9729 13.0335 9.6355C13.2904 9.5061 13.6013 9.55609 13.8047 9.7595C14.0082 9.96292 14.0581 10.2739 13.9287 10.5308C12.8931 12.5871 10.7619 14 8.29949 14C4.82038 14 2 11.1796 2 7.70053C2 5.23814 3.41294 3.10694 5.46923 2.07127C5.72615 1.94187 6.0371 1.99187 6.24052 2.19528ZM4.5478 4.44641C3.79092 5.31829 3.33333 6.45622 3.33333 7.70053C3.33333 10.4433 5.55676 12.6667 8.29949 12.6667C9.5438 12.6667 10.6817 12.2091 11.5536 11.4522C11.3074 11.4815 11.0569 11.4965 10.803 11.4965C7.32385 11.4965 4.50348 8.67617 4.50348 5.19706C4.50348 4.94316 4.51853 4.69265 4.5478 4.44641Z" />
    </symbol>
</svg>
